<!DOCTYPE svg PUBLIC "-//W3C//DTD SVG 1.1//EN" "http://www.w3.org/Graphics/SVG/1.1/DTD/svg11.dtd">
<!-- Uploaded to: SVG Repo, www.svgrepo.com, Transformed by: SVG Repo Mixer Tools -->
<svg width="800px" height="800px" viewBox="0 0 24 24" fill="none" xmlns="http://www.w3.org/2000/svg" stroke="#e7eb00">
<g id="SVGRepo_bgCarrier" stroke-width="0"/>
<g id="SVGRepo_tracerCarrier" stroke-linecap="round" stroke-linejoin="round"/>
<g id="SVGRepo_iconCarrier"> <path fill-rule="evenodd" clip-rule="evenodd" d="M11.9933 9.28058C11.1914 8.35455 9.85397 8.10546 8.84913 8.95342C7.84428 9.80138 7.70281 11.2191 8.49192 12.222C8.96002 12.8169 10.1049 13.8826 10.9589 14.6512C11.3133 14.9701 11.4905 15.1296 11.7044 15.1942C11.8874 15.2494 12.0993 15.2494 12.2823 15.1942C12.4962 15.1296 12.6734 14.9701 13.0278 14.6512C13.8818 13.8826 15.0267 12.8169 15.4948 12.222C16.2839 11.2191 16.1597 9.79246 15.1376 8.95342C14.1154 8.11438 12.7953 8.35455 11.9933 9.28058Z" stroke="#e7eb00" stroke-width="2" stroke-linecap="round" stroke-linejoin="round"/> <path d="M21 12C21 16.9706 16.9706 21 12 21C9.96359 21 3.00072 21 3.00072 21C3.00072 21 4.55992 17.2561 3.93591 16.0008C3.33685 14.7956 3 13.4372 3 12C3 7.02944 7.02943 3 12 3C16.9706 3 21 7.02944 21 12Z" stroke="#e7eb00" stroke-width="2" stroke-linecap="round" stroke-linejoin="round"/> </g>
</svg>